<mxfile host="Electron" agent="Mozilla/5.0 (Windows NT 10.0; Win64; x64) AppleWebKit/537.36 (KHTML, like Gecko) draw.io/26.0.9 Chrome/128.0.6613.186 Electron/32.2.5 Safari/537.36" version="26.0.9">
  <diagram name="Страница — 1" id="qs1NlBCHPYvGT5IOoXFo">
    <mxGraphModel dx="1052" dy="695" grid="1" gridSize="10" guides="1" tooltips="1" connect="1" arrows="1" fold="1" page="1" pageScale="1" pageWidth="827" pageHeight="1169" math="0" shadow="0">
      <root>
        <mxCell id="0" />
        <mxCell id="1" parent="0" />
        <mxCell id="uU5GyKaNLIpfIhnmyLNq-1" value="Классы программы" style="shape=note;whiteSpace=wrap;html=1;backgroundOutline=1;darkOpacity=0.05;fontSize=16;fontStyle=1" parent="1" vertex="1">
          <mxGeometry x="314" y="20" width="200" height="100" as="geometry" />
        </mxCell>
        <mxCell id="uU5GyKaNLIpfIhnmyLNq-4" value="&lt;p style=&quot;margin:0px;margin-top:4px;text-align:center;&quot;&gt;&lt;b&gt;Library&lt;/b&gt;&lt;/p&gt;&lt;hr style=&quot;border-style:solid;&quot;&gt;&lt;div style=&quot;height:2px;&quot;&gt;&lt;/div&gt;" style="verticalAlign=top;align=left;overflow=fill;html=1;whiteSpace=wrap;fontSize=14;" parent="1" vertex="1">
          <mxGeometry x="374" y="340" width="140" height="60" as="geometry" />
        </mxCell>
        <mxCell id="uU5GyKaNLIpfIhnmyLNq-5" value="&lt;p style=&quot;margin:0px;margin-top:4px;text-align:center;&quot;&gt;&lt;b&gt;Readers&lt;/b&gt;&lt;/p&gt;&lt;hr style=&quot;border-style:solid;&quot;&gt;&lt;div style=&quot;height:2px;&quot;&gt;&lt;/div&gt;" style="verticalAlign=top;align=left;overflow=fill;html=1;whiteSpace=wrap;fontSize=14;" parent="1" vertex="1">
          <mxGeometry x="120" y="140" width="140" height="60" as="geometry" />
        </mxCell>
        <mxCell id="uU5GyKaNLIpfIhnmyLNq-6" value="&lt;p style=&quot;margin:0px;margin-top:4px;text-align:center;&quot;&gt;&lt;b&gt;Reader&lt;/b&gt;&lt;/p&gt;&lt;hr style=&quot;border-style:solid;&quot;&gt;&lt;div style=&quot;height:2px;&quot;&gt;&lt;/div&gt;" style="verticalAlign=top;align=left;overflow=fill;html=1;whiteSpace=wrap;fontSize=14;" parent="1" vertex="1">
          <mxGeometry x="120" y="250" width="140" height="60" as="geometry" />
        </mxCell>
        <mxCell id="uU5GyKaNLIpfIhnmyLNq-8" value="" style="endArrow=none;html=1;rounded=0;exitX=0.5;exitY=0;exitDx=0;exitDy=0;" parent="1" source="uU5GyKaNLIpfIhnmyLNq-6" target="uU5GyKaNLIpfIhnmyLNq-5" edge="1">
          <mxGeometry width="50" height="50" relative="1" as="geometry">
            <mxPoint x="210" y="220" as="sourcePoint" />
            <mxPoint x="260" y="170" as="targetPoint" />
          </mxGeometry>
        </mxCell>
        <mxCell id="uU5GyKaNLIpfIhnmyLNq-11" value="&lt;font style=&quot;font-size: 14px;&quot;&gt;&lt;b&gt;1&lt;/b&gt;&lt;/font&gt;" style="text;html=1;align=center;verticalAlign=middle;resizable=0;points=[];autosize=1;strokeColor=none;fillColor=none;" parent="1" vertex="1">
          <mxGeometry x="184" y="196" width="30" height="30" as="geometry" />
        </mxCell>
        <mxCell id="uU5GyKaNLIpfIhnmyLNq-12" value="&lt;font style=&quot;font-size: 14px;&quot;&gt;&lt;b&gt;*&lt;/b&gt;&lt;/font&gt;" style="text;html=1;align=center;verticalAlign=middle;resizable=0;points=[];autosize=1;strokeColor=none;fillColor=none;" parent="1" vertex="1">
          <mxGeometry x="182" y="230" width="30" height="30" as="geometry" />
        </mxCell>
        <mxCell id="uU5GyKaNLIpfIhnmyLNq-13" value="&lt;p style=&quot;margin:0px;margin-top:4px;text-align:center;&quot;&gt;&lt;b&gt;BookCopies&lt;/b&gt;&lt;/p&gt;&lt;hr style=&quot;border-style:solid;&quot;&gt;&lt;div style=&quot;height:2px;&quot;&gt;&lt;/div&gt;" style="verticalAlign=top;align=left;overflow=fill;html=1;whiteSpace=wrap;fontSize=14;" parent="1" vertex="1">
          <mxGeometry x="130" y="460" width="140" height="60" as="geometry" />
        </mxCell>
        <mxCell id="uU5GyKaNLIpfIhnmyLNq-14" value="&lt;p style=&quot;margin:0px;margin-top:4px;text-align:center;&quot;&gt;&lt;b&gt;BookCopy&lt;/b&gt;&lt;/p&gt;&lt;hr style=&quot;border-style:solid;&quot;&gt;&lt;div style=&quot;height:2px;&quot;&gt;&lt;/div&gt;" style="verticalAlign=top;align=left;overflow=fill;html=1;whiteSpace=wrap;fontSize=14;" parent="1" vertex="1">
          <mxGeometry x="130" y="570" width="140" height="60" as="geometry" />
        </mxCell>
        <mxCell id="uU5GyKaNLIpfIhnmyLNq-15" value="" style="endArrow=none;html=1;rounded=0;exitX=0.5;exitY=0;exitDx=0;exitDy=0;" parent="1" source="uU5GyKaNLIpfIhnmyLNq-14" target="uU5GyKaNLIpfIhnmyLNq-13" edge="1">
          <mxGeometry width="50" height="50" relative="1" as="geometry">
            <mxPoint x="220" y="540" as="sourcePoint" />
            <mxPoint x="270" y="490" as="targetPoint" />
          </mxGeometry>
        </mxCell>
        <mxCell id="uU5GyKaNLIpfIhnmyLNq-16" value="&lt;font style=&quot;font-size: 14px;&quot;&gt;&lt;b&gt;1&lt;/b&gt;&lt;/font&gt;" style="text;html=1;align=center;verticalAlign=middle;resizable=0;points=[];autosize=1;strokeColor=none;fillColor=none;" parent="1" vertex="1">
          <mxGeometry x="194" y="516" width="30" height="30" as="geometry" />
        </mxCell>
        <mxCell id="uU5GyKaNLIpfIhnmyLNq-17" value="&lt;font style=&quot;font-size: 14px;&quot;&gt;&lt;b&gt;*&lt;/b&gt;&lt;/font&gt;" style="text;html=1;align=center;verticalAlign=middle;resizable=0;points=[];autosize=1;strokeColor=none;fillColor=none;" parent="1" vertex="1">
          <mxGeometry x="192" y="550" width="30" height="30" as="geometry" />
        </mxCell>
        <mxCell id="uU5GyKaNLIpfIhnmyLNq-18" value="&lt;p style=&quot;margin:0px;margin-top:4px;text-align:center;&quot;&gt;&lt;b&gt;Books&lt;/b&gt;&lt;/p&gt;&lt;hr style=&quot;border-style:solid;&quot;&gt;&lt;div style=&quot;height:2px;&quot;&gt;&lt;/div&gt;" style="verticalAlign=top;align=left;overflow=fill;html=1;whiteSpace=wrap;fontSize=14;" parent="1" vertex="1">
          <mxGeometry x="380" y="460" width="140" height="60" as="geometry" />
        </mxCell>
        <mxCell id="uU5GyKaNLIpfIhnmyLNq-19" value="&lt;p style=&quot;margin:0px;margin-top:4px;text-align:center;&quot;&gt;&lt;b&gt;Book&lt;/b&gt;&lt;/p&gt;&lt;hr style=&quot;border-style:solid;&quot;&gt;&lt;div style=&quot;height:2px;&quot;&gt;&lt;/div&gt;" style="verticalAlign=top;align=left;overflow=fill;html=1;whiteSpace=wrap;fontSize=14;" parent="1" vertex="1">
          <mxGeometry x="380" y="570" width="140" height="60" as="geometry" />
        </mxCell>
        <mxCell id="uU5GyKaNLIpfIhnmyLNq-20" value="" style="endArrow=none;html=1;rounded=0;exitX=0.5;exitY=0;exitDx=0;exitDy=0;" parent="1" source="uU5GyKaNLIpfIhnmyLNq-19" target="uU5GyKaNLIpfIhnmyLNq-18" edge="1">
          <mxGeometry width="50" height="50" relative="1" as="geometry">
            <mxPoint x="470" y="540" as="sourcePoint" />
            <mxPoint x="520" y="490" as="targetPoint" />
          </mxGeometry>
        </mxCell>
        <mxCell id="uU5GyKaNLIpfIhnmyLNq-21" value="&lt;font style=&quot;font-size: 14px;&quot;&gt;&lt;b&gt;1&lt;/b&gt;&lt;/font&gt;" style="text;html=1;align=center;verticalAlign=middle;resizable=0;points=[];autosize=1;strokeColor=none;fillColor=none;" parent="1" vertex="1">
          <mxGeometry x="444" y="516" width="30" height="30" as="geometry" />
        </mxCell>
        <mxCell id="uU5GyKaNLIpfIhnmyLNq-22" value="&lt;font style=&quot;font-size: 14px;&quot;&gt;&lt;b&gt;*&lt;/b&gt;&lt;/font&gt;" style="text;html=1;align=center;verticalAlign=middle;resizable=0;points=[];autosize=1;strokeColor=none;fillColor=none;" parent="1" vertex="1">
          <mxGeometry x="442" y="550" width="30" height="30" as="geometry" />
        </mxCell>
        <mxCell id="uU5GyKaNLIpfIhnmyLNq-23" value="&lt;p style=&quot;margin:0px;margin-top:4px;text-align:center;&quot;&gt;&lt;b&gt;Authors&lt;/b&gt;&lt;/p&gt;&lt;hr style=&quot;border-style:solid;&quot;&gt;&lt;div style=&quot;height:2px;&quot;&gt;&lt;/div&gt;" style="verticalAlign=top;align=left;overflow=fill;html=1;whiteSpace=wrap;fontSize=14;" parent="1" vertex="1">
          <mxGeometry x="640" y="460" width="140" height="60" as="geometry" />
        </mxCell>
        <mxCell id="uU5GyKaNLIpfIhnmyLNq-24" value="&lt;p style=&quot;margin:0px;margin-top:4px;text-align:center;&quot;&gt;&lt;b&gt;Author&lt;/b&gt;&lt;/p&gt;&lt;hr style=&quot;border-style:solid;&quot;&gt;&lt;div style=&quot;height:2px;&quot;&gt;&lt;/div&gt;" style="verticalAlign=top;align=left;overflow=fill;html=1;whiteSpace=wrap;fontSize=14;" parent="1" vertex="1">
          <mxGeometry x="640" y="570" width="140" height="60" as="geometry" />
        </mxCell>
        <mxCell id="uU5GyKaNLIpfIhnmyLNq-25" value="" style="endArrow=none;html=1;rounded=0;exitX=0.5;exitY=0;exitDx=0;exitDy=0;" parent="1" source="uU5GyKaNLIpfIhnmyLNq-24" target="uU5GyKaNLIpfIhnmyLNq-23" edge="1">
          <mxGeometry width="50" height="50" relative="1" as="geometry">
            <mxPoint x="730" y="540" as="sourcePoint" />
            <mxPoint x="780" y="490" as="targetPoint" />
          </mxGeometry>
        </mxCell>
        <mxCell id="uU5GyKaNLIpfIhnmyLNq-26" value="&lt;font style=&quot;font-size: 14px;&quot;&gt;&lt;b&gt;1&lt;/b&gt;&lt;/font&gt;" style="text;html=1;align=center;verticalAlign=middle;resizable=0;points=[];autosize=1;strokeColor=none;fillColor=none;" parent="1" vertex="1">
          <mxGeometry x="704" y="516" width="30" height="30" as="geometry" />
        </mxCell>
        <mxCell id="uU5GyKaNLIpfIhnmyLNq-27" value="&lt;font style=&quot;font-size: 14px;&quot;&gt;&lt;b&gt;*&lt;/b&gt;&lt;/font&gt;" style="text;html=1;align=center;verticalAlign=middle;resizable=0;points=[];autosize=1;strokeColor=none;fillColor=none;" parent="1" vertex="1">
          <mxGeometry x="702" y="550" width="30" height="30" as="geometry" />
        </mxCell>
        <mxCell id="uU5GyKaNLIpfIhnmyLNq-28" value="&lt;p style=&quot;margin:0px;margin-top:4px;text-align:center;&quot;&gt;&lt;b&gt;Librarians&lt;/b&gt;&lt;/p&gt;" style="verticalAlign=top;align=left;overflow=fill;html=1;whiteSpace=wrap;fontSize=14;" parent="1" vertex="1">
          <mxGeometry x="610" y="140" width="140" height="60" as="geometry" />
        </mxCell>
        <mxCell id="uU5GyKaNLIpfIhnmyLNq-29" value="&lt;p style=&quot;margin:0px;margin-top:4px;text-align:center;&quot;&gt;&lt;b&gt;Librarian&lt;/b&gt;&lt;br&gt;&lt;/p&gt;&lt;hr style=&quot;border-style:solid;&quot;&gt;&lt;div style=&quot;height:2px;&quot;&gt;&lt;/div&gt;" style="verticalAlign=top;align=left;overflow=fill;html=1;whiteSpace=wrap;fontSize=14;" parent="1" vertex="1">
          <mxGeometry x="610" y="250" width="140" height="60" as="geometry" />
        </mxCell>
        <mxCell id="uU5GyKaNLIpfIhnmyLNq-30" value="" style="endArrow=none;html=1;rounded=0;exitX=0.5;exitY=0;exitDx=0;exitDy=0;" parent="1" source="uU5GyKaNLIpfIhnmyLNq-29" target="uU5GyKaNLIpfIhnmyLNq-28" edge="1">
          <mxGeometry width="50" height="50" relative="1" as="geometry">
            <mxPoint x="700" y="220" as="sourcePoint" />
            <mxPoint x="750" y="170" as="targetPoint" />
          </mxGeometry>
        </mxCell>
        <mxCell id="uU5GyKaNLIpfIhnmyLNq-31" value="&lt;font style=&quot;font-size: 14px;&quot;&gt;&lt;b&gt;1&lt;/b&gt;&lt;/font&gt;" style="text;html=1;align=center;verticalAlign=middle;resizable=0;points=[];autosize=1;strokeColor=none;fillColor=none;" parent="1" vertex="1">
          <mxGeometry x="674" y="196" width="30" height="30" as="geometry" />
        </mxCell>
        <mxCell id="uU5GyKaNLIpfIhnmyLNq-32" value="&lt;font style=&quot;font-size: 14px;&quot;&gt;&lt;b&gt;*&lt;/b&gt;&lt;/font&gt;" style="text;html=1;align=center;verticalAlign=middle;resizable=0;points=[];autosize=1;strokeColor=none;fillColor=none;" parent="1" vertex="1">
          <mxGeometry x="672" y="230" width="30" height="30" as="geometry" />
        </mxCell>
        <mxCell id="uU5GyKaNLIpfIhnmyLNq-34" value="" style="endArrow=none;html=1;rounded=0;exitX=0.425;exitY=-0.05;exitDx=0;exitDy=0;exitPerimeter=0;entryX=1;entryY=0.25;entryDx=0;entryDy=0;" parent="1" source="uU5GyKaNLIpfIhnmyLNq-4" target="uU5GyKaNLIpfIhnmyLNq-5" edge="1">
          <mxGeometry width="50" height="50" relative="1" as="geometry">
            <mxPoint x="310" y="360" as="sourcePoint" />
            <mxPoint x="360" y="310" as="targetPoint" />
          </mxGeometry>
        </mxCell>
        <mxCell id="uU5GyKaNLIpfIhnmyLNq-35" value="1" style="text;whiteSpace=wrap;html=1;fontSize=14;fontStyle=1" parent="1" vertex="1">
          <mxGeometry x="290" y="152" width="20" height="18" as="geometry" />
        </mxCell>
        <mxCell id="uU5GyKaNLIpfIhnmyLNq-36" value="" style="endArrow=none;html=1;rounded=0;entryX=0.25;entryY=1;entryDx=0;entryDy=0;exitX=0.436;exitY=-0.05;exitDx=0;exitDy=0;exitPerimeter=0;" parent="1" source="uU5GyKaNLIpfIhnmyLNq-13" target="uU5GyKaNLIpfIhnmyLNq-4" edge="1">
          <mxGeometry width="50" height="50" relative="1" as="geometry">
            <mxPoint x="220" y="380" as="sourcePoint" />
            <mxPoint x="270" y="330" as="targetPoint" />
          </mxGeometry>
        </mxCell>
        <mxCell id="uU5GyKaNLIpfIhnmyLNq-37" value="" style="endArrow=none;html=1;rounded=0;entryX=0;entryY=0.5;entryDx=0;entryDy=0;exitX=0.693;exitY=-0.064;exitDx=0;exitDy=0;exitPerimeter=0;" parent="1" source="uU5GyKaNLIpfIhnmyLNq-4" target="uU5GyKaNLIpfIhnmyLNq-28" edge="1">
          <mxGeometry width="50" height="50" relative="1" as="geometry">
            <mxPoint x="490" y="220" as="sourcePoint" />
            <mxPoint x="540" y="170" as="targetPoint" />
          </mxGeometry>
        </mxCell>
        <mxCell id="uU5GyKaNLIpfIhnmyLNq-38" value="" style="endArrow=none;html=1;rounded=0;exitX=1;exitY=0.25;exitDx=0;exitDy=0;entryX=0;entryY=0.25;entryDx=0;entryDy=0;" parent="1" source="uU5GyKaNLIpfIhnmyLNq-13" target="uU5GyKaNLIpfIhnmyLNq-18" edge="1">
          <mxGeometry width="50" height="50" relative="1" as="geometry">
            <mxPoint x="310" y="520" as="sourcePoint" />
            <mxPoint x="360" y="470" as="targetPoint" />
          </mxGeometry>
        </mxCell>
        <mxCell id="uU5GyKaNLIpfIhnmyLNq-39" value="" style="endArrow=none;html=1;rounded=0;exitX=1;exitY=0.25;exitDx=0;exitDy=0;entryX=0;entryY=0.25;entryDx=0;entryDy=0;" parent="1" source="uU5GyKaNLIpfIhnmyLNq-18" target="uU5GyKaNLIpfIhnmyLNq-23" edge="1">
          <mxGeometry width="50" height="50" relative="1" as="geometry">
            <mxPoint x="570" y="480" as="sourcePoint" />
            <mxPoint x="620" y="430" as="targetPoint" />
          </mxGeometry>
        </mxCell>
        <mxCell id="uU5GyKaNLIpfIhnmyLNq-40" value="1" style="text;whiteSpace=wrap;html=1;fontSize=14;fontStyle=1" parent="1" vertex="1">
          <mxGeometry x="436" y="315" width="20" height="18" as="geometry" />
        </mxCell>
        <mxCell id="uU5GyKaNLIpfIhnmyLNq-41" value="1" style="text;whiteSpace=wrap;html=1;fontSize=14;fontStyle=1" parent="1" vertex="1">
          <mxGeometry x="582" y="162" width="20" height="18" as="geometry" />
        </mxCell>
        <mxCell id="uU5GyKaNLIpfIhnmyLNq-42" value="1" style="text;whiteSpace=wrap;html=1;fontSize=14;fontStyle=1" parent="1" vertex="1">
          <mxGeometry x="500" y="308" width="20" height="18" as="geometry" />
        </mxCell>
        <mxCell id="uU5GyKaNLIpfIhnmyLNq-43" value="1" style="text;whiteSpace=wrap;html=1;fontSize=14;fontStyle=1" parent="1" vertex="1">
          <mxGeometry x="340" y="390" width="20" height="18" as="geometry" />
        </mxCell>
        <mxCell id="uU5GyKaNLIpfIhnmyLNq-44" value="1" style="text;whiteSpace=wrap;html=1;fontSize=14;fontStyle=1" parent="1" vertex="1">
          <mxGeometry x="190" y="430" width="20" height="18" as="geometry" />
        </mxCell>
        <mxCell id="uU5GyKaNLIpfIhnmyLNq-45" value="1" style="text;whiteSpace=wrap;html=1;fontSize=14;fontStyle=1" parent="1" vertex="1">
          <mxGeometry x="279" y="449" width="20" height="18" as="geometry" />
        </mxCell>
        <mxCell id="uU5GyKaNLIpfIhnmyLNq-46" value="1" style="text;whiteSpace=wrap;html=1;fontSize=14;fontStyle=1" parent="1" vertex="1">
          <mxGeometry x="360" y="449" width="20" height="18" as="geometry" />
        </mxCell>
        <mxCell id="uU5GyKaNLIpfIhnmyLNq-47" value="1" style="text;whiteSpace=wrap;html=1;fontSize=14;fontStyle=1" parent="1" vertex="1">
          <mxGeometry x="529" y="449" width="20" height="18" as="geometry" />
        </mxCell>
        <mxCell id="uU5GyKaNLIpfIhnmyLNq-48" value="1" style="text;whiteSpace=wrap;html=1;fontSize=14;fontStyle=1" parent="1" vertex="1">
          <mxGeometry x="610" y="450" width="20" height="18" as="geometry" />
        </mxCell>
      </root>
    </mxGraphModel>
  </diagram>
</mxfile>
